<svg
    xmlns="http://www.w3.org/2000/svg"
    x="0px" y="0px"
    viewBox="0 0 864 864"
>
  <g>
    <path
        class="ls0"
        d="M420.5,134.8v594.3c-18.5-0.7-36.5-3.1-54-7c-94.6-21.2-172.1-87.6-208.9-175.2l49.8-20.9	c12.1,28.8,29.8,55.3,52.5,78c30.1,30.1,66.7,51.3,106.6,62.4v-469c-39.9,11.1-76.5,32.3-106.6,62.4c-5.2,5.2-10.2,10.6-14.8,16.2	l-41.5-34.6c41.2-49.3,98-85.1,162.9-99.7C384,137.9,402,135.5,420.5,134.8z"/>
    <g>
      <path
          class="ls0"
          d="M659.1,432l63.5-63.5c-3-13.8-7-27.3-11.8-40.3C676.1,235,596,164,497.5,141.9c-17.5-3.9-35.5-6.3-54-7v594.3 c18.5-0.7,36.5-3.1,54-7C596,700,676.1,629,710.8,535.8c4.9-13,8.8-26.5,11.8-40.3L659.1,432z M497.5,197.5 c39.9,11.1,76.5,32.3,106.6,62.4c26.6,26.6,46.2,58.2,58.1,92.6L609.7,405H497.5V197.5z M604.1,604.1 c-30.1,30.1-66.7,51.3-106.6,62.4V459h112.2l11.2,11.2l41.3,41.3C650.3,545.9,630.7,577.5,604.1,604.1z"/>
    </g>
  </g>
</svg>
