<svg
    xmlns="http://www.w3.org/2000/svg"
    x="0px" y="0px"
    viewBox="0 0 864 864"
>
  <g>
    <path
        class="ls0"
        d="M283.4,650.5l20.8,17.4l66.1,55.5l47,39.4v-61.4V618c0-5.2,0-176.4,0-179.2c0-9.5,0-86.5,0-95.6V316v-37.6v-7.5	v-39.5h-47h-42.5h-36.5h-47v47v76.4l47-20.8v-55.6h40.9h38.1v16.8c0,27.2,0,91.8,0,113.8v9c0,9.6,0,80.9,0,90.5v85.2v45V662	L352,646.8l-35.2-29.5l-3.3-2.8c-14.2-11.9-22.3-29.4-22.3-47.9v-23.2l-47,20.8v2.4c0,26.3,9.4,51.5,26.3,71.2	C274.4,642.3,278.7,646.6,283.4,650.5z"/>
    <path
        class="ls0"
        d="M488.7,231.4h-47c0,13,0,509.3,0,531.4l47-39.4c95.5-80.1,92.1-76.7,99.8-85.7c16.5-19.3,26.2-44.4,26.2-71.2	c0-7.1,0-135.3,0-140.1l-47-20.8l-5-2.2l5-2.2l47-20.8v-45v-57.1v-47h-47H488.7z M567.8,450.8v115.8c0,10.1-2.4,20-7,28.7	c-3.8,7.3-8.9,13.8-15.4,19.2l-3.3,2.8l-35.2,29.5L488.7,662v-23.3v-45v-30.2V436.2l23-10.2L567.8,450.8z M567.8,356.2l-56,24.7	l-23,10.2v-20.3v-92.4h79V356.2z"
    />
  </g>
</svg>
