<svg
    xmlns="http://www.w3.org/2000/svg"
    x="0px"
    y="0px"
    viewBox="0 0 864 864"
>
  <g>
    <path
        class="ls0"
        d="M432 93.5L415.1 119 415.1 119 387.8 160.2 409.9 193.6 432 160.2 454.1 193.6 476.2 226.9 502 265.8 526.4 302.6 553.4 343.3 583.1 388.2 432 388.2 280.9 388.2 310.6 343.3 337.6 302.6 293.4 302.6 266.4 343.3 236.7 388.2 212.2 425 256.5 425 607.5 425 651.8 425 627.3 388.2 597.6 343.3 570.6 302.6 546.2 265.8 520.4 226.9 476.2 160.2 450.8 121.9 450.8 121.9z"/>
    <path
        class="ls0"
        d="M256.5,441.2h-44.2l24.4,36.8l56.7,85.6l24.4,36.9l70,105.6l27.2,41.1l0,0l17,25.6l17-25.6l0,0l27.2-41.1	l35.9-54.2l20.8-31.3l-20-20l-6.5-6.5l-6.1-6.1l16.5-9.5l25.4-14.7l46.2-26.7l39-58.9l24.4-36.8h-44.2H256.5z M454.1,672.7L432,706	l-22.1-33.4L362,600.4h70h28.7l24.8,24.8L454.1,672.7z M562.4,509.3l-89.2,51.5l-4.8,2.8H432h-94.4L280.9,478H432h151.1L562.4,509.3	z"/>
  </g>
</svg>
